<svg xmlns="http://www.w3.org/2000/svg" width="184" height="144"><g fill="none" fill-rule="evenodd"><path d="M105.523 22.093c1.785-1.26 4.8-1.46 6.73-.45l55.168 28.865c1.932 1.011 2.117 2.916.412 4.258l-94.184 74.078c-1.704 1.34-4.544 1.45-6.369.229l-54.905-36.76c-1.813-1.215-1.836-3.22-.052-4.478" fill="#000" fill-rule="nonzero"/><path d="M105.523 22.093c1.785-1.26 4.8-1.46 6.73-.45l55.168 28.865c1.932 1.011 2.117 2.916.412 4.258l-94.184 74.078c-1.704 1.34-4.544 1.45-6.369.229l-54.905-36.76c-1.813-1.215-1.836-3.22-.052-4.478" fill="#77909D"/><path d="M25.285 78.849L10.678 82.28v7.812l.023.014c-.111.906.346 1.834 1.368 2.514l55.286 36.76c1.837 1.221 4.697 1.112 6.413-.229l94.837-74.078c.877-.685 1.257-1.517 1.161-2.301v-7.874l-8.927 2.098-48.2-25.045c-1.943-1.01-4.979-.81-6.775.449l-80.58 56.448z" fill="#5F7D8C" fill-rule="nonzero"/><path d="M168.99 45.082l-98.04 76.485v8.638c-1.267.116-2.585-.153-3.595-.824L12.07 92.621c-1.022-.68-1.48-1.608-1.368-2.514l-.023-.014v-7.812l14.607-3.432L105.864 22.4c1.796-1.259 4.832-1.459 6.775-.45l48.2 25.046 8.15-1.915zm-87.175 77.785l-8.047 6.285c-.174.136-.36.26-.556.37l8.603-6.655z" fill="#77909D" fill-rule="nonzero"/><path d="M105.864 14.636c1.796-1.258 4.832-1.459 6.775-.449l55.552 28.865c1.945 1.01 2.132 2.916.414 4.257l-94.837 74.078c-1.716 1.34-4.576 1.45-6.413.23L12.07 84.856c-1.826-1.215-1.848-3.22-.052-4.478" fill="#B0BEC5" fill-rule="nonzero"/><path fill="#FFF" fill-rule="nonzero" d="M96.39 21.26l62.853 33.22-75.963 59.454-61.656-40.34z"/><g><path fill="#FFCDD2" fill-rule="nonzero" d="M78.33 34.883L138.32 70.9l-55.04 43.035-62.088-40.437z"/><path fill="#E53935" fill-rule="nonzero" d="M77.255 27.498L25.42 62.483 21.445 62v2.965l-.032.022 63.476 40.46 54.96-42.94.01-.001v-.007l.023-.02-.024-.012V59.45l-4.666.485z"/><path fill="#E57373" fill-rule="nonzero" d="M77.255 24.498l62.627 34.982-54.993 41.967-63.476-39.46z"/><path d="M42 61.455L85.982 52l-7.334 17.416h18.757l-9.887 18.651L42 61.455zm37.5-15.77c-3.038 0-5.5-1.945-5.5-4.343C74 38.944 76.462 37 79.5 37s5.5 1.944 5.5 4.342c0 2.398-2.462 4.342-5.5 4.342z" stroke="#EF9A9A" stroke-width="2" stroke-linecap="round" stroke-linejoin="round"/></g><g><path fill-opacity=".143" fill="#000" fill-rule="nonzero" d="M118.771 44.276l-10.026 7.91 31.324 17.41 10.694-8.155z"/><path fill="#77909D" fill-rule="nonzero" d="M120.499 39.344l-10.764 5.936v2.056l31.334 17.26 10.694-8.155v-1.938z"/><path fill="#CFD8DC" fill-rule="nonzero" d="M109.506 45.199l31.563 17.397 10.694-8.155-32.206-17.184z"/><path d="M120.956 40.689l4.544 2.596a1 1 0 01.144 1.637l-3.827 3.189a2 2 0 01-2.273.2L115 45.715a1 1 0 01-.144-1.637l3.827-3.189a2 2 0 012.273-.2z" fill="#B0BEC5"/></g></g></svg>