<svg xmlns="http://www.w3.org/2000/svg" xmlns:xlink="http://www.w3.org/1999/xlink" width="184" height="144" viewBox="0 0 184 144"><title>banner</title><defs><path d="M96.18 9.093c1.796-1.26 4.83-1.46 6.775-.45l55.55 28.865c1.946 1.01 2.133 2.916.416 4.258l-94.836 74.078c-1.716 1.34-4.576 1.45-6.413.23L2.386 79.313c-1.826-1.216-1.85-3.22-.053-4.48" id="b"/><filter x="-50%" y="-50%" width="200%" height="200%" filterUnits="objectBoundingBox" id="a"><feOffset dy="2" in="SourceAlpha" result="shadowOffsetOuter1"/><feGaussianBlur stdDeviation="2" in="shadowOffsetOuter1" result="shadowBlurOuter1"/><feColorMatrix values="0 0 0 0 0.466666667 0 0 0 0 0.564705882 0 0 0 0 0.615686275 0 0 0 1 0" in="shadowBlurOuter1"/></filter><path d="M15.285 57.85L.678 61.28v7.813l.023.014c-.11.906.347 1.834 1.37 2.514l55.285 36.76c1.837 1.222 4.697 1.113 6.413-.228l94.837-74.078c.877-.685 1.257-1.517 1.16-2.3v-7.875l-8.926 2.097L102.64.952c-1.944-1.01-4.98-.81-6.776.45l-80.58 56.447z" id="c"/><path id="e" d="M75.39.26l62.853 33.22L62.28 92.933.624 52.594z"/></defs><g fill="none" fill-rule="evenodd"><g transform="translate(11 13)"><use fill="#000" filter="url(#a)" xlink:href="#b"/><use fill="#77909D" xlink:href="#b"/></g><g transform="translate(11 21)"><mask id="d" fill="#fff"><use xlink:href="#c"/></mask><use fill="#77909D" xlink:href="#c"/><path fill="#5F7D8C" mask="url(#d)" d="M60.95 100.567v9.705l99.33-76.847-.51-9.953"/><path fill="#CDD6DA" mask="url(#d)" d="M73.29 92.95v8.434l76.094-60.072v-7.94"/></g><path d="M106.864 14.636c1.796-1.258 4.832-1.46 6.775-.45l55.55 28.866c1.946 1.01 2.133 2.916.415 4.257l-94.837 74.077c-1.716 1.34-4.576 1.45-6.413.23L13.07 84.856c-1.827-1.215-1.85-3.22-.053-4.478" fill="#B0BEC5"/><g transform="translate(22 21)"><mask id="f" fill="#fff"><use xlink:href="#e"/></mask><use fill="#FFF" xlink:href="#e"/><path fill="#FFECB3" mask="url(#f)" transform="rotate(30 79.3 37.513)" d="M45.164 23.968l78.532-.38-10.873 27.85-77.92-1.15"/></g><g transform="translate(59 14)"><path fill="#F9A825" d="M1.064 26.943v-2.91l85.51 17.686v3.03"/><path fill="#F9A825" d="M23.967 10.692l62.627 33.98-24.25 18.417L.974 27.05"/><path fill="#FFC107" d="M24.255 7.498L86.882 41.48l-24.25 18.416-61.37-36.04"/><path fill="#FEDF88" d="M43.014 26L40 27.995 70.15 45.57l3.018-2.233M37.014 31L34 32.995 64.15 50.57l3.018-2.233"/><ellipse fill="#FEDF88" cx="25.5" cy="22.5" rx="9.5" ry="7.5"/></g></g></svg>