<svg xmlns="http://www.w3.org/2000/svg" xmlns:xlink="http://www.w3.org/1999/xlink" width="184" height="144" viewBox="0 0 184 144"><title>banner copy 2</title><defs><path d="M96.18 29.093c1.796-1.26 4.83-1.46 6.775-.45l55.55 28.865c1.946 1.01 2.133 2.916.416 4.258l-94.836 74.078c-1.716 1.34-4.576 1.45-6.413.23L2.386 99.313c-1.826-1.216-1.85-3.22-.053-4.48" id="b"/><filter x="-50%" y="-50%" width="200%" height="200%" filterUnits="objectBoundingBox" id="a"><feOffset dy="2" in="SourceAlpha" result="shadowOffsetOuter1"/><feGaussianBlur stdDeviation="2" in="shadowOffsetOuter1" result="shadowBlurOuter1"/><feColorMatrix values="0 0 0 0 0.466666667 0 0 0 0 0.564705882 0 0 0 0 0.615686275 0 0 0 1 0" in="shadowBlurOuter1"/></filter><path d="M15.285 57.85L.678 61.28v7.813l.023.014c-.11.906.347 1.834 1.37 2.514l55.285 36.76c1.837 1.222 4.697 1.113 6.413-.228l94.837-74.078c.877-.685 1.257-1.517 1.16-2.3v-7.875l-8.926 2.097L102.64.952c-1.944-1.01-4.98-.81-6.776.45l-80.58 56.447z" id="c"/></defs><g fill="none" fill-rule="evenodd"><g transform="translate(12 -7)"><use fill="#000" filter="url(#a)" xlink:href="#b"/><use fill="#77909D" xlink:href="#b"/></g><g transform="translate(12 21)"><mask id="d" fill="#fff"><use xlink:href="#c"/></mask><use fill="#77909D" xlink:href="#c"/><path fill="#5F7D8C" mask="url(#d)" d="M60.95 100.567v9.705l99.33-76.847-.51-9.953"/><path fill="#CDD6DA" mask="url(#d)" d="M73.29 92.95v8.434l76.094-60.072v-7.94"/></g><path d="M107.864 14.636c1.796-1.258 4.832-1.46 6.775-.45l55.55 28.866c1.946 1.01 2.133 2.916.415 4.257l-94.837 74.077c-1.716 1.34-4.576 1.45-6.413.23L14.07 84.856c-1.827-1.215-1.85-3.22-.053-4.478" fill="#B0BEC5"/><path fill="#FFF" d="M98.39 21.26l62.853 33.22-75.963 59.454-61.656-40.34"/><path fill="#FFF" d="M98.39 21.26l62.853 33.22-75.963 59.454-61.656-40.34"/><path fill="#B2EBF2" d="M97.33 22.883l59.9 34.855-67.587 52.867-62.073-39.87"/><g transform="translate(26 -7)"><path fill="#00838F" d="M70.255 22.498l62.627 33.982-68.993 53.967-61.477-40.46"/><path fill="#00838F" d="M2.445 67l130.413-13.55v3.056L2.445 70"/><path fill="#00ACC1" d="M70.255 19.498l62.627 33.982-68.993 53.967-61.477-40.46"/><path d="M26.936 61.56c-1.415-.863-3.7-.837-5.087.048l-4.374 2.787c-1.395.89-1.395 2.316.024 3.204L63.126 96.11c1.41.88 3.606.764 4.906-.26l4.254-3.347c1.3-1.024 1.21-2.55-.206-3.416L26.936 61.56z" fill="#26C6DA"/><path stroke="#26C6DA" stroke-width="2" stroke-linecap="round" stroke-linejoin="round" d="M35 55.455l45.518 26.612 9.887-18.65H71.648L78.982 46z"/><ellipse stroke="#26C6DA" stroke-width="2" cx="72.5" cy="35.342" rx="5.5" ry="4.342"/></g></g></svg>