<svg xmlns="http://www.w3.org/2000/svg" xmlns:xlink="http://www.w3.org/1999/xlink" width="184" height="144" viewBox="0 0 184 144">
    <title>banner copy 3</title>
    <defs>
        <path d="M96.18 29.093c1.796-1.26 4.83-1.46 6.775-.45l55.55 28.865c1.946 1.01 2.133 2.916.416 4.258l-94.836 74.078c-1.716 1.34-4.576 1.45-6.413.23L2.386 99.313c-1.826-1.216-1.85-3.22-.053-4.48" id="b"/>
        <filter x="-50%" y="-50%" width="200%" height="200%" filterUnits="objectBoundingBox" id="a">
            <feOffset dy="2" in="SourceAlpha" result="shadowOffsetOuter1"/>
            <feGaussianBlur stdDeviation="2" in="shadowOffsetOuter1" result="shadowBlurOuter1"/>
            <feColorMatrix values="0 0 0 0 0.466666667 0 0 0 0 0.564705882 0 0 0 0 0.615686275 0 0 0 1 0" in="shadowBlurOuter1"/>
        </filter>
        <path d="M15.285 57.85L.678 61.28v7.813l.023.014c-.11.906.347 1.834 1.37 2.514l55.285 36.76c1.837 1.222 4.697 1.113 6.413-.228l94.837-74.078c.877-.685 1.257-1.517 1.16-2.3v-7.875l-8.926 2.097L102.64.952c-1.944-1.01-4.98-.81-6.776.45l-80.58 56.447z" id="c"/>
    </defs>
    <g fill="none" fill-rule="evenodd">
        <g transform="translate(12 -7)">
            <use fill="#000" filter="url(#a)" xlink:href="#b"/>
            <use fill="#77909D" xlink:href="#b"/>
        </g>
        <g transform="translate(12 21)">
            <mask id="d" fill="#fff">
                <use xlink:href="#c"/>
            </mask>
            <use fill="#77909D" xlink:href="#c"/>
            <path fill="#5F7D8C" mask="url(#d)" d="M60.95 100.567v9.705l99.33-76.847-.51-9.953"/>
            <path fill="#CDD6DA" mask="url(#d)" d="M73.29 92.95v8.434l76.094-60.072v-7.94"/>
        </g>
        <path d="M107.864 14.636c1.796-1.258 4.832-1.46 6.775-.45l55.55 28.866c1.946 1.01 2.133 2.916.415 4.257l-94.837 74.077c-1.716 1.34-4.576 1.45-6.413.23L14.07 84.856c-1.827-1.215-1.85-3.22-.053-4.478" fill="#B0BEC5"/>
        <path fill="#FFF" d="M98.39 21.26l62.853 33.22-75.963 59.454-61.656-40.34"/>
        <path fill="#B1DFDB" d="M97.33 22.883l59.9 34.855-67.587 52.867-62.073-39.87"/>
        <g>
            <path fill="#00695C" d="M96.255 15.498l62.627 33.982-68.993 53.967-61.477-40.46"/>
            <path fill="#00695C" d="M28.445 60l130.413-13.55v3.056L28.445 63"/>
            <path fill="#008A7B" d="M96.255 12.498l62.627 33.982-68.993 53.967-61.477-40.46"/>
            <path d="M77.194 78c7.47 0 13.695-4.914 13.695-11.25S84.663 55.5 77.193 55.5 63.5 60.414 63.5 66.75 69.725 78 77.194 78z" fill="#48B6AC" fill-rule="nonzero"/>
            <g fill-rule="nonzero" fill="#48B6AC">
                <path d="M90.002 31.97l1.31 20.968c.038.606.54 1.074 1.142 1.062l33.44-.7c.57-.01 1.04-.452 1.094-1.025l1.007-10.783c.042-.448-.183-.878-.572-1.097l-21.857-12.253c-.23-.13-.5-.172-.76-.12l-13.9 2.766c-.553.11-.94.616-.904 1.183zm14.835-1.645l20.857 11.692-.845 9.04-31.368.655-1.18-18.893 12.535-2.495z"/>
                <path d="M102.01 37.637l-.606.525.403-.144.203-.38zm-6.668 12.446l6.465-12.065 10.845-3.893-.744-2.125-11.25 4.037c-.258.093-.474.28-.605.525l-7.915 14.77c-.468.874.328 1.89 1.274 1.626l22.532-6.268c.293-.082.54-.282.685-.553L121 37.91l-1.96-1.067-4.146 7.8-19.552 5.44z"/>
                <path d="M92 32.942L124.866 53 126 51.058 93.134 31"/>
            </g>
        </g>
        <path fill="#008A7B" d="M68.11 67.784l10.513-7.88L84.397 70.5"/>
    </g>
</svg>