<svg width="680" height="680" viewBox="0 0 680 680" fill="none" xmlns="http://www.w3.org/2000/svg">
<path d="M342.157 522.288C341.919 522.294 341.683 522.315 341.446 522.317C334.947 522.37 328.426 520.745 322.575 517.44L189.941 442.523C182.155 438.142 177.321 429.926 177.234 420.998L177.231 268.665C177.166 262.164 178.451 255.897 181.088 250.375L77.3892 192.279C73.023 201.404 70.8968 211.763 71.0038 222.51L71.0071 473.959C71.1504 488.695 79.1308 502.256 91.983 509.489L310.915 633.15C320.574 638.605 331.336 641.288 342.063 641.2L342.066 641.023C342.31 625.342 342.234 562.087 342.157 522.288Z" fill="#083042"/>
<path d="M181.11 250.35C183.952 244.407 188.363 239.335 194.37 235.787L319.231 162.129C330.846 155.265 345.237 155.133 356.987 161.767L483.215 233.061C488.842 236.243 493.77 240.735 497.376 246.051C497.39 246.072 497.403 246.095 497.417 246.115L599.443 185.184C593.491 176.408 585.356 168.993 576.068 163.74L367.71 46.0586C348.315 35.1087 324.561 35.3269 305.388 46.6572L99.2862 168.241C89.3722 174.097 82.091 182.47 77.4004 192.278L181.1 250.374L181.11 250.35Z" fill="#FEE734"/>
<path d="M599.444 185.186L497.417 246.117C501.324 251.876 503.704 258.578 503.772 265.576L503.77 410.542C503.892 424.039 496.818 436.568 485.203 443.42L360.341 517.09C354.727 520.408 348.463 522.12 342.167 522.288C342.245 562.088 342.321 625.343 342.077 641.023L342.074 641.201C352.86 641.113 363.631 638.257 373.247 632.572L579.349 510.969C598.522 499.658 610.2 478.979 609.997 456.699L609.999 217.41C609.886 205.818 605.935 194.716 599.444 185.186Z" fill="#E73F39"/>
<path d="M233.203 280.897C232.163 283.375 231.469 286.032 231.202 288.813C231.099 289.878 231.053 290.96 231.064 292.051L231.066 394.161C231.073 394.909 231.13 395.649 231.234 396.379C231.547 398.565 232.287 400.649 233.39 402.518C234.124 403.764 235.02 404.914 236.059 405.937C237.098 406.96 238.279 407.855 239.584 408.59L328.489 458.807C332.411 461.022 336.781 462.111 341.138 462.076C341.454 462.073 341.768 462.052 342.085 462.037C346.145 461.854 350.173 460.714 353.796 458.572L437.493 409.19C437.979 408.903 438.454 408.601 438.916 408.285C439.841 407.653 440.717 406.965 441.54 406.226C442.773 405.118 443.889 403.897 444.874 402.584C445.53 401.709 446.129 400.792 446.666 399.841C447.016 399.22 447.331 398.578 447.629 397.929C447.953 397.221 448.246 396.498 448.504 395.761C448.594 395.504 448.681 395.247 448.763 394.986C449.55 392.487 449.963 389.85 449.938 387.152L449.939 289.98C449.922 288.214 449.685 286.477 449.258 284.791C448.972 283.667 448.602 282.565 448.155 281.494C447.931 280.958 447.688 280.429 447.427 279.909C447.121 279.297 446.782 278.7 446.426 278.113C446.177 277.701 445.924 277.292 445.652 276.894C445.048 276.003 444.388 275.146 443.68 274.329C441.553 271.879 438.988 269.785 436.16 268.185L351.548 220.397C350.071 219.563 348.533 218.888 346.955 218.373C344.852 217.687 342.681 217.283 340.498 217.163C339.953 217.132 339.407 217.12 338.86 217.125C338.261 217.13 337.663 217.162 337.066 217.211C335.59 217.329 334.124 217.582 332.683 217.96C332.414 218.031 332.146 218.109 331.879 218.188C329.931 218.77 328.034 219.579 326.24 220.64L242.544 270.013C240.028 271.5 237.93 273.385 236.245 275.562C235.57 276.433 234.962 277.352 234.421 278.308C234.15 278.788 233.895 279.276 233.657 279.774C233.483 280.137 233.359 280.525 233.203 280.897Z" fill="#D6F0FF"/>
<path d="M342.065 462.041C341.75 462.055 341.435 462.077 341.119 462.079C336.763 462.115 332.393 461.026 328.47 458.811L239.565 408.593C238.26 407.859 237.079 406.964 236.04 405.941C235.002 404.918 234.106 403.767 233.37 402.521C232.268 400.652 231.529 398.569 231.216 396.382C231.111 395.653 231.055 394.912 231.047 394.164L231.045 292.054C231.035 290.964 231.081 289.882 231.183 288.816C231.451 286.035 232.145 283.379 233.184 280.901L209.178 266.119L181.076 250.376C178.439 255.899 177.154 262.165 177.219 268.667L177.222 421C177.308 429.928 182.143 438.144 189.929 442.525L322.563 517.443C328.414 520.747 334.934 522.372 341.433 522.319C341.67 522.318 341.907 522.296 342.144 522.29C342.107 502.871 342.069 489.037 342.069 489.037L342.065 462.041Z" fill="#083042"/>
<path d="M342.065 462.041C341.75 462.055 341.435 462.077 341.119 462.079C336.763 462.115 332.393 461.026 328.47 458.811L239.565 408.593C238.26 407.859 237.079 406.964 236.04 405.941C235.002 404.918 234.106 403.767 233.37 402.521C232.268 400.652 231.529 398.569 231.216 396.382C231.111 395.653 231.055 394.912 231.047 394.164L231.045 292.054C231.035 290.964 231.081 289.882 231.183 288.816C231.451 286.035 232.145 283.379 233.184 280.901L209.178 266.119L181.076 250.376C178.439 255.899 177.154 262.165 177.219 268.667L177.222 421C177.308 429.928 182.143 438.144 189.929 442.525L322.563 517.443C328.414 520.747 334.934 522.372 341.433 522.319C341.67 522.318 341.907 522.296 342.144 522.29C342.107 502.871 342.069 489.037 342.069 489.037L342.065 462.041Z" fill="#041619"/>
<path d="M483.191 233.059L356.963 161.764C345.213 155.13 330.822 155.263 319.207 162.128L194.346 235.785C188.34 239.333 183.929 244.405 181.087 250.348L181.076 250.371L209.178 266.115L233.185 280.896C233.34 280.523 233.465 280.136 233.638 279.773C233.876 279.275 234.131 278.787 234.402 278.307C234.944 277.35 235.552 276.432 236.226 275.561C237.912 273.384 240.01 271.498 242.525 270.012L326.221 220.638C328.016 219.577 329.912 218.768 331.861 218.187C332.128 218.108 332.395 218.029 332.664 217.959C334.105 217.58 335.571 217.328 337.047 217.209C337.644 217.161 338.243 217.13 338.841 217.124C339.388 217.118 339.934 217.131 340.48 217.161C342.662 217.282 344.833 217.686 346.936 218.372C348.514 218.887 350.053 219.562 351.529 220.395L436.141 268.184C438.97 269.784 441.536 271.878 443.661 274.328C444.37 275.145 445.03 276.001 445.634 276.892C445.906 277.29 446.159 277.7 446.407 278.112L467.992 263.672L497.393 246.113C497.379 246.093 497.367 246.07 497.353 246.05C493.746 240.733 488.818 236.24 483.191 233.059Z" fill="#3DDB85"/>
<path d="M483.191 233.059L356.963 161.764C345.213 155.13 330.822 155.263 319.207 162.128L194.346 235.785C188.34 239.333 183.929 244.405 181.087 250.348L181.076 250.371L209.178 266.115L233.185 280.896C233.34 280.523 233.465 280.136 233.638 279.773C233.876 279.275 234.131 278.787 234.402 278.307C234.944 277.35 235.552 276.432 236.226 275.561C237.912 273.384 240.01 271.498 242.525 270.012L326.221 220.638C328.016 219.577 329.912 218.768 331.861 218.187C332.128 218.108 332.395 218.029 332.664 217.959C334.105 217.58 335.571 217.328 337.047 217.209C337.644 217.161 338.243 217.13 338.841 217.124C339.388 217.118 339.934 217.131 340.48 217.161C342.662 217.282 344.833 217.686 346.936 218.372C348.514 218.887 350.053 219.562 351.529 220.395L436.141 268.184C438.97 269.784 441.536 271.878 443.661 274.328C444.37 275.145 445.03 276.001 445.634 276.892C445.906 277.29 446.159 277.7 446.407 278.112L467.992 263.672L497.393 246.113C497.379 246.093 497.367 246.07 497.353 246.05C493.746 240.733 488.818 236.24 483.191 233.059Z" fill="#C6B42D"/>
<path d="M446.416 278.113C446.771 278.701 447.111 279.298 447.418 279.909C447.679 280.43 447.921 280.959 448.145 281.494C448.592 282.566 448.963 283.667 449.248 284.791C449.676 286.478 449.912 288.214 449.929 289.98L449.928 387.152C449.952 389.851 449.539 392.488 448.753 394.987C448.671 395.248 448.584 395.505 448.493 395.762C448.236 396.499 447.943 397.222 447.619 397.93C447.321 398.579 447.007 399.22 446.655 399.842C446.118 400.793 445.52 401.71 444.863 402.585C443.878 403.898 442.763 405.119 441.529 406.226C440.706 406.965 439.831 407.653 438.906 408.286C438.443 408.602 437.969 408.903 437.482 409.191L353.787 458.572C350.163 460.714 346.136 461.854 342.074 462.038L342.078 489.034C342.078 489.034 342.115 502.869 342.153 522.287C348.449 522.119 354.713 520.408 360.327 517.089L485.189 443.418C496.804 436.567 503.878 424.038 503.756 410.541L503.757 265.574C503.688 258.576 501.309 251.876 497.402 246.115L468 263.674L446.416 278.113Z" fill="#4285F4"/>
<path d="M446.416 278.113C446.771 278.701 447.111 279.298 447.418 279.909C447.679 280.43 447.921 280.959 448.145 281.494C448.592 282.566 448.963 283.667 449.248 284.791C449.676 286.478 449.912 288.214 449.929 289.98L449.928 387.152C449.952 389.851 449.539 392.488 448.753 394.987C448.671 395.248 448.584 395.505 448.493 395.762C448.236 396.499 447.943 397.222 447.619 397.93C447.321 398.579 447.007 399.22 446.655 399.842C446.118 400.793 445.52 401.71 444.863 402.585C443.878 403.898 442.763 405.119 441.529 406.226C440.706 406.965 439.831 407.653 438.906 408.286C438.443 408.602 437.969 408.904 437.482 409.191L353.787 458.572C350.163 460.714 346.136 461.854 342.074 462.038L342.078 489.034C342.078 489.034 342.115 502.869 342.153 522.287C348.449 522.119 354.713 520.408 360.327 517.089L485.189 443.418C496.804 436.567 503.878 424.038 503.756 410.541L503.757 265.574C503.688 258.576 501.309 251.876 497.402 246.115L468 263.674L446.416 278.113Z" fill="#5A1917"/>
</svg>
